<svg width="17" height="16" viewBox="0 0 17 16" fill="none" xmlns="http://www.w3.org/2000/svg">
<path fill-rule="evenodd" clip-rule="evenodd" d="M5.41462 4.57643L5.83202 4.42913C6.31962 4.25706 6.66656 3.7927 6.66656 3.25C6.66656 2.55964 6.10605 2 5.41462 2C4.7232 2 4.16268 2.55964 4.16268 3.25C4.16268 3.7927 4.50962 4.25706 4.99722 4.42913L5.41462 4.57643ZM8.40171 11.9228L7.99577 12.0992C7.55068 12.2927 7.24265 12.7347 7.24265 13.2463C7.24265 13.9367 7.80316 14.4963 8.49459 14.4963C9.18602 14.4963 9.74653 13.9367 9.74653 13.2463C9.74653 12.6734 9.35964 12.1882 8.83064 12.0416L8.40171 11.9228ZM11.5747 4.57643L11.992 4.4291C12.4796 4.257 12.8265 3.79266 12.8265 3.25C12.8265 2.55964 12.266 2 11.5746 2C10.8831 2 10.3226 2.55964 10.3226 3.25C10.3226 3.79273 10.6696 4.25711 11.1572 4.42916L11.5747 4.57643ZM6.16579 5.37197V6.30614C6.16579 6.73363 6.38459 7.13148 6.74587 7.36089L8.39275 8.40668L10.1284 7.54629C10.5542 7.33517 10.8235 6.90142 10.8235 6.42669V5.37203C9.94822 5.06319 9.32106 4.22972 9.32106 3.25C9.32106 2.00736 10.33 1 11.5746 1C12.8191 1 13.828 2.00736 13.828 3.25C13.828 4.22961 13.201 5.06299 12.3259 5.37192V6.42669C12.3259 7.47109 11.7333 8.42535 10.7964 8.8898L9.09839 9.73158V11.078C10.0498 11.3415 10.7481 12.2125 10.7481 13.2463C10.7481 14.489 9.73916 15.4963 8.49459 15.4963C7.25002 15.4963 6.2411 14.489 6.2411 13.2463C6.2411 12.3226 6.79864 11.5289 7.59606 11.1823V9.67844L5.93964 8.6266C5.14483 8.12188 4.66346 7.24662 4.66346 6.30614V5.37197C3.78821 5.06309 3.16113 4.22966 3.16113 3.25C3.16113 2.00736 4.17005 1 5.41462 1C6.65919 1 7.66811 2.00736 7.66811 3.25C7.66811 4.22966 7.04104 5.06309 6.16579 5.37197Z" fill="#999999"/>
</svg>
